<?xml version="1.0" encoding="UTF-8"?>
<svg width="70px" height="70px" viewBox="0 0 70 70" version="1.1" xmlns="http://www.w3.org/2000/svg" xmlns:xlink="http://www.w3.org/1999/xlink">
    <title>阿里云</title>
    <g id="统一鉴权浅色版本" stroke="none" stroke-width="1" fill="none" fill-rule="evenodd">
        <g id="画板" transform="translate(-300.000000, -210.000000)" fill-rule="nonzero">
            <g id="阿里云" transform="translate(300.000000, 210.000000)">
                <rect id="矩形" fill="#FFFFFF" x="0" y="0" width="70" height="70"></rect>
                <g transform="translate(0.000000, 4.000000)" fill="#F66A03" id="形状">
                    <path d="M30.2248649,0 L18.900946,0 C14.7321621,0 11.3513513,3.33992513 11.3513513,7.4602944 L11.3513513,19.8082382 C11.3513513,23.9314284 14.7312162,27.2685327 18.9,27.2685327 L30.2248649,27.2685327 C30.4878378,27.2685327 29.5191892,23.0729398 29.5191892,23.0729398 L19.5772973,21.1096055 C18.5528379,20.9065019 17.7213514,19.8966259 17.7213514,18.8547799 L17.7213514,8.41375279 C17.7213514,7.37096646 18.5509459,6.36203079 19.5782433,6.15892722 L29.5191892,4.19559283 C29.5191892,4.19559283 30.4868919,0 30.2248649,0 Z M37.8832433,0 L49.2071622,0 C53.3759459,0 56.7567567,3.33992513 56.7567567,7.4602944 L56.7567567,19.8082382 C56.7567567,23.9314284 53.3768919,27.2685327 49.2081081,27.2685327 L37.8822973,27.2685327 C37.6193243,27.2685327 38.5879729,23.0729398 38.5879729,23.0729398 L48.5298649,21.1096055 C49.5543243,20.9065019 50.3858108,19.8966259 50.3858108,18.8547799 L50.3858108,8.41375279 C50.3858108,7.37096646 49.5562162,6.36203079 48.5289189,6.15892722 L38.5889189,4.19559283 C38.5889189,4.19559283 37.6212162,0 37.8832433,0 Z"></path>
                    <path d="M29.3243243,13.1641192 L37.8378379,13.1641192 L37.8378379,14.1044134 L29.3243243,14.1044134 L29.3243243,13.1641192 Z M36.8918918,42.3132403 L36.8918918,45.4180919 L41.5951351,45.4180919 L42.0851351,47.6277833 L36.9108108,47.6277833 L36.9108108,50.7476795 C38.7355405,50.7476795 40.4552702,50.8417089 42.1551351,50.6875007 C42.6318918,50.6442472 43.4075676,49.895773 43.434054,49.4322079 C43.5655405,47.1040394 43.4945946,44.7636471 43.4945946,42.3132403 L36.8918918,42.3132403 Z M34.054054,42.3132403 L27.4324324,42.3132403 L27.4324324,49.8355942 L33.9972973,49.8355942 L33.9972973,47.0852335 L28.8125676,47.0852335 L29.2883784,45.0504368 L34.054054,45.0504368 L34.054054,42.3132403 L34.054054,42.3132403 Z M34.282027,52.7589689 L25.6455405,52.7589689 L25.6455405,40.4326519 L45.29,40.4326519 C45.29,43.7236817 45.412973,46.9329059 45.2417568,50.1270854 C45.1462162,51.8948385 44.0167568,52.6940886 42.2232432,52.740163 C40.4212162,52.7862375 38.6172973,52.749566 36.6904054,52.749566 L36.6904054,55.6644781 L43.6714865,55.6644781 L44.1955405,57.9174231 L36.662973,57.9174231 L36.662973,60.8596037 L44.8945946,60.8596037 L45.4054054,62.9997134 L25.5405405,62.9997134 L25.9558108,60.9442302 L34.2943243,60.9442302 L34.2943243,57.9785422 L26.6974324,57.9785422 L27.1514865,55.7782537 L34.282027,55.7782537 L34.282027,52.7599092 L34.282027,52.7589689 Z M65.2693243,54.4007227 L67.4081081,54.4007227 C67.9,56.5511755 68.4363514,58.6668376 68.8535135,60.8069473 C69.1183783,62.1684933 68.2216216,62.9762061 66.5141892,62.9874895 C62.9905406,63.0100566 59.4668919,62.9950119 55.9422973,62.9959522 L51.2437838,62.9959522 L53.9113513,51.0307082 L50.1351351,51.0307082 L50.592027,48.8953 L69.4797297,48.8953 L70,50.9648875 L56.1901351,50.9648875 L54.0116216,60.6771866 L66.6116216,60.6771866 L65.2683784,54.4007227 L65.2693243,54.4007227 Z M3.35054055,60.6038437 L3.35054055,58.1430937 C5.82702705,55.6419111 5.83648652,52.9526696 3.28432432,49.5958191 L4.85932431,42.4730903 L2.10378381,42.4730903 L2.10378381,62.9997134 L0,62.9997134 L0,40.4326519 L7.56756758,40.4326519 C7.01986488,42.8294619 6.52513518,45.1604513 5.94148648,47.4688736 C5.6927027,48.4524214 5.79959461,49.2366267 6.27256758,50.1797419 C7.66500002,52.9536098 7.91189191,55.8224475 5.96135133,58.4684355 C5.38243243,59.2545215 4.41851352,59.7509968 3.35054055,60.6029034 L3.35054055,60.6038437 Z M20.8108108,40.4326519 C19.1308108,46.319834 20.3047298,52.2521503 19.9471622,58.1083028 C19.7721622,60.9762002 17.884054,62.7693413 14.5893243,62.9997134 L14.1475676,61.1905873 C14.9402703,60.8690066 15.7651351,60.7533504 16.2664865,60.2785018 C16.9116216,59.6691912 17.7090541,58.783434 17.7289189,57.9973481 C17.8585136,52.8802668 17.7951352,47.7584842 17.7951351,42.4683889 L9.96837837,42.4683889 L9.45945946,40.4326519 L20.8108108,40.4326519 Z M16.0687838,45.134123 C16.0687838,49.0476276 16.1056757,52.8097448 16.0517567,56.5709217 C16.029054,58.1318101 15.1663513,59.0373135 13.5847297,59.1783576 C12.2604054,59.2968347 10.9171622,59.2028052 9.45945946,59.2028053 L9.45945946,45.134123 L16.0687838,45.134123 Z M11.3513513,56.3584152 C12.354054,56.4947579 13.195,56.4909967 13.2167568,55.274256 C13.2659459,52.5511639 13.2318919,49.825251 13.2318919,47.0147114 L11.3513513,47.0147114 L11.3513513,56.3584152 Z M51.0810811,42.3132403 L51.4651351,40.4326519 L67.602973,40.4326519 L68.1081081,42.3132403 L51.0810811,42.3132403 Z"></path>
                </g>
            </g>
        </g>
    </g>
</svg>