<?xml version="1.0" encoding="UTF-8"?>
<svg width="16px" height="16px" viewBox="0 0 16 16" version="1.1" xmlns="http://www.w3.org/2000/svg" xmlns:xlink="http://www.w3.org/1999/xlink">
    <title>数据同步</title>
    <g id="统一鉴权浅色版本" stroke="none" stroke-width="1" fill="none" fill-rule="evenodd">
        <g id="画板" transform="translate(-420.000000, -347.000000)" fill="#79828F" fill-rule="nonzero">
            <g id="数据同步" transform="translate(420.000000, 347.000000)">
                <g transform="translate(0.000000, 2.000000)">
                    <path d="M8.00212988,0 C10.4580839,0 12.5002141,1.77124563 12.9200353,4.10525157 C14.8952487,4.57152673 16.2078089,6.44364294 15.9728429,8.4594979 C15.7378769,10.4753529 14.0299294,11.9954018 12.000427,11.9948949 L4.00383275,11.9948949 C1.97268427,11.9975657 0.262278561,10.4769385 0.0271511878,8.45944339 C-0.207976186,6.4419483 1.10689789,4.56874219 3.08422442,4.104252 C3.51616615,1.72739963 5.58634827,-0.000276747888 8.00212988,0 Z M14.9991499,7.99659425 C14.9991499,6.34044536 13.6565759,4.99787141 12.000427,4.99787141 C12.0004609,2.8286003 10.2707112,1.05501096 8.10211854,1.00076223 C5.93352586,0.94651351 4.11726028,2.63139703 4.00883063,4.79795655 L4.00383275,4.99787141 C2.34768386,4.99787141 1.00510991,6.34044536 1.00510991,7.99659425 C1.00510991,9.65274315 2.34768386,10.9953171 4.00383275,10.9953171 L12.000427,10.9953171 C13.6565759,10.9953171 14.9991499,9.65274315 14.9991499,7.99659425 Z" id="形状"></path>
                    <path d="M9.00170416,4.50808001 C9.27772898,4.50808001 9.5014913,4.73184233 9.5014913,5.00786715 L9.5014913,9.00616428 C9.5014913,9.28218909 9.27772898,9.50595142 9.00170416,9.50595142 C8.72567935,9.50595142 8.50191702,9.28218909 8.50191702,9.00616428 L8.50191702,5.00786715 C8.50191702,4.73184233 8.72567935,4.50808001 9.00170416,4.50808001 Z" id="路径"></path>
                    <path d="M8.65585146,4.61803318 C8.82177258,4.39754054 9.1349948,4.35324197 9.35555346,4.51907533 L10.9518736,5.72256276 C11.1001221,5.82798652 11.1793821,6.00563429 11.1588118,6.18637897 C11.1382414,6.36712364 11.0210895,6.52241797 10.8529428,6.59183313 C10.6847961,6.66124828 10.4922121,6.63382067 10.3501299,6.52022304 L8.75380974,5.31773518 C8.53364386,5.15150829 8.48979899,4.83833064 8.65585146,4.61803318 Z M4.90844748,7.52179647 C5.0743686,7.30130383 5.38759082,7.25700526 5.60814948,7.42283861 L7.2044696,8.62632605 C7.41062636,8.79653823 7.44632862,9.09884507 7.28549439,9.31239868 C7.12466015,9.52595229 6.82424967,9.57512159 6.60372546,9.42398633 L5.00640576,8.22149847 C4.78623988,8.05527157 4.74239501,7.74209393 4.90844748,7.52179647 Z" id="形状"></path>
                    <path d="M6.92558838,9.51194886 C6.64956356,9.51194886 6.42580124,9.28818654 6.42580124,9.01216172 L6.42580124,5.0138646 C6.42580124,4.73783978 6.64956356,4.51407746 6.92558838,4.51407746 C7.2016132,4.51407746 7.42537552,4.73783978 7.42537552,5.0138646 L7.42537552,9.01216172 C7.42537552,9.28818654 7.2016132,9.51194886 6.92558838,9.51194886 Z" id="路径"></path>
                </g>
            </g>
        </g>
    </g>
</svg>